HIERARCHY
ROOT Bone
{
	OFFSET 0.000000 0.000000 0.000000
	CHANNELS 6 Xposition Yposition Zposition Xrotation Yrotation Zrotation
	JOINT Bone.001
	{
		OFFSET 0.000000 0.000000 1.000000
		CHANNELS 3 Xrotation Yrotation Zrotation
		JOINT Bone.002
		{
			OFFSET 0.000000 -0.000000 2.000000
			CHANNELS 3 Xrotation Yrotation Zrotation
			End Site
			{
				OFFSET 1.000000 -0.000000 2.000000
			}
		}
		JOINT Bone.003
		{
			OFFSET 0.000000 -0.000000 2.000000
			CHANNELS 3 Xrotation Yrotation Zrotation
			End Site
			{
				OFFSET -1.000000 -0.000000 2.000000
			}
		}
	}
}
MOTION
Frames: 30
Frame Time: 0.041667
0.000000 0.000000 0.000000 -0.000000 0.000000 -0.000000 -0.000000 0.000000 -0.000000 -0.000000 0.000000 0.000000 -0.000000 -0.000000 -0.000000 
0.000000 0.000000 0.000000 -0.000000 0.000000 2.806387 0.000000 2.779326 0.000000 0.000000 2.779329 0.000000 -0.000000 -0.000000 0.000000 
0.000000 0.000000 0.000000 -0.000000 0.000000 10.588067 -0.000000 10.231515 0.000000 0.000001 10.231517 -0.000001 -0.000000 -0.000002 -0.000001 
0.000000 0.000000 0.000000 -0.000000 0.000000 22.442270 0.000000 20.999493 0.000001 -0.000000 20.999487 0.000001 -0.000001 -0.000003 0.000000 
0.000000 0.000000 0.000000 -0.000000 0.000000 37.134031 -0.000001 33.677149 0.000002 0.000006 33.677149 0.000001 0.000001 0.000003 0.000001 
0.000000 0.000000 0.000000 -0.000000 0.000000 52.865975 -0.000001 46.925012 0.000003 0.000002 46.925005 0.000001 -0.000003 -0.000005 0.000000 
0.000000 0.000000 0.000000 -0.000000 0.000000 67.557729 -0.000002 59.673532 0.000004 -0.000001 59.673532 0.000001 -0.000002 -0.000002 0.000000 
0.000000 0.000000 0.000000 -0.000000 0.000000 79.411932 -0.000005 71.252807 0.000007 0.000006 71.252800 -0.000002 0.000002 -0.000002 -0.000000 
0.000000 0.000000 0.000000 -0.000000 0.000000 87.193608 -0.000012 81.371718 0.000017 0.000008 81.371718 -0.000005 -0.000000 -0.000000 -0.000000 
0.000000 0.000000 0.000000 0.000003 -0.000003 90.000009 -0.000000 89.999989 0.000003 -0.000000 89.999989 0.000003 -0.000000 -0.000000 -0.000000 
0.000000 0.000000 0.000000 0.000002 -0.000003 81.324884 -40.729036 101.164172 33.933363 0.000009 107.827766 -0.000006 -0.000002 -2.741073 0.000000 
0.000000 0.000000 0.000000 0.000002 -0.000003 58.979981 -70.047920 124.318145 40.623684 0.000005 165.015663 0.000001 0.000001 -10.529523 -0.000001 
0.000000 0.000000 0.000000 0.000001 -0.000004 31.020018 -103.661112 156.806745 29.262224 0.000001 270.691926 0.000107 -0.000001 -22.884327 -0.000001 
0.000000 0.000000 0.000000 0.000000 -0.000004 8.675097 -143.692946 176.901667 9.430341 0.000004 322.699391 -0.000003 0.000004 -39.052399 -0.000002 
0.000000 0.000000 0.000000 -0.000000 0.000000 -0.000000 -179.999991 179.999978 0.000010 0.000000 334.897398 0.000000 0.000003 -57.500016 0.000000 
0.000000 0.000000 0.000000 -0.000000 0.000000 8.675109 -216.293199 183.180647 9.683894 0.000000 324.418467 0.000004 0.000021 -75.947626 0.000006 
0.000000 0.000000 0.000000 -0.000000 0.000000 31.020025 -256.057672 203.647199 29.969753 -0.000003 298.336461 -0.000002 0.000025 -92.115681 -0.000013 
0.000000 0.000000 0.000000 -0.000000 0.000000 58.979974 -288.946536 236.323452 41.836517 0.000051 266.403223 0.000020 -0.000016 -104.470475 -0.000026 
0.000000 0.000000 0.000000 -0.000000 0.000000 81.324884 -317.421867 259.338130 35.816487 0.000004 237.708506 0.000005 -0.000001 -112.258926 -0.000008 
0.000000 0.000000 0.000000 0.000003 -0.000003 90.000009 -360.000010 270.000028 -0.000003 0.000006 215.000025 0.000002 0.000008 -114.999991 0.000005 
0.000000 0.000000 0.000000 0.000002 -0.000003 87.712757 -360.000037 277.699400 -0.000019 0.000005 193.999379 0.000000 0.000009 -112.258913 0.000006 
0.000000 0.000000 0.000000 0.000002 -0.000003 81.324884 -360.000010 286.602770 -0.000008 0.000005 170.321709 -0.000001 0.000012 -104.470469 0.000012 
0.000000 0.000000 0.000000 0.000002 -0.000003 71.478777 -360.000010 296.710193 -0.000005 0.000002 142.568137 -0.000004 0.000107 -92.115667 0.000108 
0.000000 0.000000 0.000000 0.000002 -0.000003 58.979981 -360.000010 307.868755 -0.000003 0.000027 111.013032 -0.000015 -0.000010 -75.947605 -0.000016 
0.000000 0.000000 0.000000 0.000001 -0.000004 45.000001 -360.000010 319.694791 -0.000002 -0.000019 78.672906 0.000024 -0.000012 -57.500002 -0.000010 
0.000000 0.000000 0.000000 0.000001 -0.000004 31.020018 -360.000010 331.533530 -0.000001 -0.000006 49.966146 0.000007 -0.000004 -39.052385 -0.000009 
0.000000 0.000000 0.000000 0.000001 -0.000004 18.521229 -360.000010 342.495765 -0.000001 -0.000006 27.683011 0.000004 -0.000004 -22.884318 -0.000004 
0.000000 0.000000 0.000000 0.000000 -0.000004 8.675097 -360.000010 351.568524 -0.000000 -0.000005 12.251620 0.000003 -0.000004 -10.529502 -0.000003 
0.000000 0.000000 0.000000 0.000000 -0.000004 2.287254 -360.000010 357.730857 -0.000000 -0.000005 3.120786 0.000003 -0.000004 -2.741063 -0.000002 
0.000000 0.000000 0.000000 -0.000000 0.000000 -0.000000 -360.000010 360.000010 -0.000000 -0.000000 0.000000 0.000000 -0.000000 -0.000000 -0.000000 
